<?xml version="1.0" encoding="UTF-8"?>
<svg id="Capa_2" data-name="Capa 2" xmlns="http://www.w3.org/2000/svg" viewBox="0 0 477.34 455.53">
  <g id="Layer_1" data-name="Layer 1">
    <g>
      <path d="M301.4,2c6.4-2.67,14.62-3.13,20.25,1.5,5.96,4.71,8.29,12.71,8.01,20.05-.09,3.2-1.58,6.3-1.57,9.43,2.99,4.83-.32,10.84-4.28,14.03-.91,3.98-1.59,8.07-3.68,11.65,1.95,6.88,9.2,10.19,15.3,12.6.84.85,1.42,2.05.15,2.81.66.52,1.29,1.08,1.93,1.65-.23-1.01-.12-2,.33-2.97,6.73,2.95,13.79,5.11,20.54,8.02,2.49,1.2,5.67,2.62,6.11,5.7,2.04,12.76,4.91,25.37,8.45,37.79,2.04,7.29,4.32,14.54,5.5,22.03,1.04,8.68.42,17.56-2.07,25.96-4.81,16.98-12.49,32.95-19.84,48.94-.89,1.68-1.71,3.9-3.79,4.35-3.41-.63-5.62-3.65-7.81-6.08-3.75,16.12-6.56,32.52-7.31,49.07-1.64,17.93-.64,35.96-.91,53.93.86,34.19-10.88,67.08-12.17,101.1-.29,1.27.11,3.68-1.78,3.76-7.59.33-15.25-1.36-22.14-4.56-.76,4.72,4.41,6.74,5.91,10.27-2.38.31-4.79.3-7.19.41,1.4,2.35,3.64,4.14,4.67,6.73,1.74,3.95,2.76,8.72,6.69,11.16,3.87,2.55,8.66,2.18,13.07,2.07,1.93.16,3.48-1.1,5.08-1.97.14-3.01-2.34-4.89-4.07-6.98-3.15-3.61-5.2-8.22-5.43-13.03,52.66.03,105.33-.03,157.99.01-.22,1.52-1.06,2.15-2.54,1.9-51.18.02-102.36-.08-153.54.05.97,3.49,2.29,6.99,4.73,9.74,1.83,2.27,4.43,4.27,4.79,7.37-.75,2.78-3.43,4.37-6.13,4.75-5.34.69-11.22.28-15.71-2.97-3.45-2.6-4.82-6.89-6.32-10.75-1-3.23-4.15-5.06-5.39-8.17-4.46-.06-8.92-.07-13.38.01-4.9,6.32-14.09,7.41-21.35,5.39-2.68-.41-3.08-3.24-2.95-5.45-9.96.02-19.92.04-29.88,0-1.43.29-2.16-1.06-2.8-2.03-15.7-26.83-22.16-58.11-23.19-88.91-.28-17.39.35-34.91,4.06-51.96,4.22-19.38,7.34-39.08,7.76-58.94.04-4.55-.3-9.1-.75-13.63.6.14,1.79.41,2.38.55-.64,5,.35,10.03.02,15.06-.35,20.25-3.92,40.28-8.2,60.02-2.87,14.12-3.57,28.55-3.49,42.92.2,32.83,6.72,66.43,23.51,95,10.41-.11,20.92.41,31.27-.23,4.96-6.49,11.38-13.49,10.47-22.29-5.4-1.31-5.64-7.67-6.47-12.11-2.57-19.55-5.86-39.02-10.43-58.21-4.88-23.19.31-46.76.83-70.09.06-5.22.09-10.42.02-15.63-2.25-.12-4.37-.76-6.03-2.32-.01-4.71.07-9.42.65-14.09.74-6.64-.32-13.26-.65-19.87.46.2,1.39.6,1.85.8,3.87,10.99,5.53,22.54,6.3,34.11,9.34-.82,17.94-5.9,23.31-13.56,8.59-12.29,11.12-27.71,11.58-42.39.37-2.44-1.15-5.91,1.59-7.26,3.77,14.46,7.53,29.06,14.07,42.57,2.43,4.74,5.17,9.57,9.45,12.89,3.05,2.56,7.94,2.44,10.89-.23,4.3-3.67,6.84-8.92,8.95-14.06,1.96-5.3,4.08-11,2.68-16.71-2.19-9.7-.39-19.94,4.43-28.58-2.77,1.47-3.4,4.79-5.21,7.12-2.68,3.51-6.17,6.99-10.77,7.58-1.58-4.66-5.92-9.27-4.13-14.43,5.65-.28,11.33-.15,16.93-1.01,1.37-4.59,2.35-9.32,2.17-14.13,1.15-22.29.92-44.8,5.43-66.77,1.44-6.28,3.18-13.01,8.16-17.5-9.55-4.35-19.27-8.27-28.72-12.8,5.06,3.72,6.89,10.08,6.19,16.14-2.42.76-4.88,1.43-7.29,2.21,1.96,1.73,3.82,3.58,5.38,5.69-2.35,8.76-6.17,17.02-9.93,25.25-5.23,10.88-10.86,21.63-17.87,31.48-2.16,2.89-4.27,6.01-7.49,7.83.12-1.24.41-2.43.87-3.58,11.96-27.27,22.8-55.66,25.6-85.53-.53-.68-1.6-2.03-2.14-2.71,1.08.13,2.17.25,3.26.36l-.41-1.49c1.75.94,3.51,1.89,5.32,2.75-3.95-2.78-8.53-5.24-10.37-10.03-3.63,4.14-9.6,7.03-15.07,5.06-4.01-1.14-7.03-4.16-9.7-7.21,0,2.24-.36,4.45-1.18,6.53,3.92,3.48,7.73,7.67,13.05,8.9,2.48.14,4.83-.98,7.02-2.01.42.61.82,1.24,1.23,1.87l-.17-2.37c1.04.42,3.13,1.26,4.17,1.68-.73,3.71-1.1,7.48-1.69,11.21-3.7.4-5.89-4.59-9.55-4.96-3.83,1.17-6.25,4.57-9.05,7.18-1.58.46-1.6-1.91-2.3-2.79-1.53-3.75-1.03-7.98-.28-11.84,1.6.54,3.2,1.11,4.81,1.65-2.4-1.94-4.89-3.78-6.97-6.07-6.55,7.86-7.96,18.39-9.12,28.2-1.06,18.76.83,37.64,5.3,55.89.71,3.23,2.27,6.38,1.88,9.76,4.67.77,11.24,1.48,13.01,6.69,2.12,1.63,2.25,4.52-.11,6.02-.44,1.14-.88,2.29-1.34,3.43-.57.16-1.71.47-2.28.63-.75,1.22-1.24,2.81-2.7,3.36-5.92,1.57-12,.06-17.99.1-5.19,0-9.94-2.39-14.31-4.95-.58,3.01-.87,9.18-5.39,7.9-4.57-3.5-4.17-9.74-4.58-14.84-1.63-2.96-.24-7.77,3.17-8.47-1.64,7.24-2.88,16.36,2.66,22.26,1.92-2.74,2.4-6.09,2.6-9.33,4.97,1.8,9.38,5.55,14.92,5.44,6.36.15,12.95,2.03,19.18-.11-.25-.67-.76-2.01-1.01-2.68,1.59-.36,3.58.05,4.74-1.33-.18-.85-.38-1.7-.59-2.54,1.14-.52,2.28-1.07,3.41-1.63-.97-.69-1.93-1.4-2.87-2.13-.23-1.19.21-2.81-1.26-3.32-5.35-3.17-12.21-1.98-17.2-5.81-2.05-.83-4.34-.86-6.51-1.09-5.02-.53-8.98,4.1-13.96,3.56-2.54-2.47-4.56-5.46-7.35-7.67-3.83-3.31-8.67-5.05-13.49-6.33-1.86,1.15-3.66,2.41-5.14,4.03-1.44,12.72,7.43,23.94,17.09,31.13-1.06-4.27-1.76-8.81-.45-13.11.33-.88,1.22-.74,1.94-.51-1.28,5.63-.5,11.32,1.57,16.63-4.01-.6-6.9-3.97-9.9-6.43-6.67-6.89-12.79-15.82-12.3-25.82-.07-2.76,2.27-4.62,4.09-6.34-.53-.38-1.59-1.12-2.12-1.5.7-4.38,2.19-8.59,2.99-12.96,3.67-16.26,5.01-33.06,10.22-48.96.69-1.78,1.1-4.08,3.1-4.87,4.84-1.72,10.01-2.19,15-3.36,1.4-.65,2.65.45,3.87.96-6.2,2.09-13.07,1.33-18.93,4.4-5.54,14.14-6.94,29.41-9.87,44.21-1.17,6.89-2.99,13.64-4.47,20.46,3.76.16,7.54-.23,11.29.19,2.6.66,4.97,1.93,7.46,2.91-.54.5-1.08,1-1.62,1.51-2.74-1.72-5.84-2.69-8.99-3.31,6.57,2.7,12.39,7.03,16.5,12.87,3.44.02,6.27-2.08,9.44-3.05,3.05-.55,6.17-.23,9.23.05,3.06.9,5.54,3.17,8.77,3.66-2.04-3-3.91-6.11-5.65-9.29,1.04.24,2.09.49,3.14.76-2.88-7.36-3.54-15.35-4.74-23.1-1.98-15.8-2.74-32.01.92-47.63,1.08-4.64,2.88-9.1,5.42-13.13-1.71,1.46-3.5,2.82-5.36,4.08.16.33.48.98.64,1.31-3.09,4.35-6.83,8.15-10.25,12.22-.62,3.05,4.67,3.77,3.79,6.7-2.17,1.69-4.62,2.94-6.89,4.49,2.06,14.64,5.86,29.02,10.76,42.96,1.46,3.87,2.81,7.83,5.02,11.37-1.17-.22-2.34-.43-3.5-.64l.81-.46c-6.26-13.48-10-27.99-13.13-42.47-.72-3.58-1.45-7.2-1.47-10.86,1.09-2.72,4.37-3.6,6.61-5.16-1.48-1.71-4.25-3.29-3.98-5.79,1.73-3.51,5.01-5.92,7.5-8.86-.25-.02-.77-.07-1.02-.09-6.94,3.62-14.96,3.1-22.33,5.08.65-2.89,3.85-2.64,6.17-3.02,6.86-.67,14.01-1.98,19.77-6.02-3.93.82-8.29,4.77-12.08,1.95,5.78-1.24,11.63-3.14,16.35-6.81,3.68-2.81,5.93-7.65,5.08-12.27-.99-2.71-2.72-5.05-4.18-7.51,1.28-.01,3.48.16,1.9-1.65-2.1-3.95-2.18-8.56-2.25-12.92-.06-4.44-2.06-8.66-1.7-13.12.55-4.75,4.6-8.21,8.74-10.03,7.77,5.36,17.42,7.54,26.78,6.43,3.34,8.67.81,18.14,2.45,27.12,2.11-2.58,3.45-5.69,3.86-9-.58-.18-1.75-.53-2.34-.7.43-3.97,2.42-7.65,2.24-11.71.52-7.73-2.46-16.61-9.83-20.18-6.99-3.34-14.93-.51-21.19,3.14-2.56,1.84-6.12.31-8.59,2.32-4.07,2.8-4.7,8.18-4.49,12.73-.18,4.97,1.03,9.83,2.74,14.46,1.05,1.55-.19,2.65-1.68,3.05.03,2.82.94,5.84,3.42,7.47-.46.64-.91,1.28-1.36,1.91-2.5-3.29-5.98-8.36-2.15-11.97-2.57-7-3.94-14.8-2.16-22.15,1.03-4.77,5.3-8.7,10.28-8.75,3.26-.06,5.76-2.4,8.72-3.44ZM288.09,19.75c-1.09,3.7.4,7.47,1.01,11.12,1.18,4.79-.1,9.9,1.82,14.55,1.72,4.43,1.91,9.74,5.58,13.16,3.46,3.93,8.96,7.28,14.32,5.28,3.48-1.4,7.99-3.99,7.6-8.35.09-3.06.77-6.05,1.51-9.01.44-.2,1.33-.59,1.77-.79-.49-8.72.74-17.6-1.25-26.19-9.03.92-18.23-1.18-25.82-6.14-2.85,1.18-5.37,3.49-6.54,6.37ZM324.89,72.59c-3.02,28.56-12.97,55.78-24.26,81.99,10.2-13.59,17.65-29.03,24.43-44.54,1.8-4.59,4-9.11,4.7-14.03-1.8-2.03-5.06-3.54-5.14-6.54,2.09-1.62,4.94-1.55,7.4-2.27-.15-2.9-.03-5.96-1.37-8.62-1.12-2.64-3.6-4.27-5.76-5.99ZM296.59,74.34c-.39,3.15-.6,6.57.97,9.46,3.22-2.28,5.93-6.49,10.22-6.42,2.59,1.14,4.69,3.1,6.93,4.78.58-2.53.92-5.11,1.07-7.7-6.06,2.62-13.01,1.41-19.19-.12ZM339.55,75.44c6.48,3.77,14.02,5.57,20.3,9.82-6.06,2.62-7.88,9.4-9.36,15.23-4.3,18.31-4.52,37.21-5.54,55.89-.34,8.91.33,17.98-2.34,26.62,1.49-.32,2.99-.61,4.51-.87-1.28,2.89-3.2,5.46-4.36,8.41-2.79,7.03-3.41,14.91-1.55,22.26,1.29,4.07-.11,8.24-1.15,12.19-1.94,6.36-4.67,12.64-9.05,17.72-2.61,2.92-6.41,5.42-10.5,4.7-4.97-1.25-8.48-5.4-11.19-9.48-7.97-12.62-11.66-27.26-15.92-41.39-.51,13.91-2.86,28.35-10.45,40.29-5.65,8.93-15.29,16.02-26.19,16.06-.04,7.55.08,15.1-.74,22.62-.9,21.72-5.08,43.86.16,65.35,3.89,16.62,6.86,33.45,9.1,50.38.85,5.05,1.02,10.42,3.59,14.99,1.29.51,3.78.14,3.79,2.14,1.04,9-5.29,16.28-10.26,23.03,6.67.05,13.35,0,20.03.03,1.2-5.08,3.43-10.03,7.9-13.03.07-2.2-.46-4.56.51-6.61,1.07-1.16,2.78-1.78,3.45-3.27-2.58-20.97-4.05-42.06-6.53-63.04-.56-7.05-2.3-14.06-1.45-21.16,1.45-22.6,6.59-44.78,8.5-67.33.4.2,1.21.6,1.61.8,1.71,9.15,3.1,18.37,4.19,27.62.82,9.64-.08,19.31-.38,28.96-.19,6.37.57,12.71.5,19.08.02,7.99,1.16,15.95.99,23.95-.14,15.98.75,32.02-.92,47.94-.22,5.66-1.94,11.14-2.03,16.81.53-.35,1.57-1.05,2.09-1.4,6.7,3.46,14.26,5.11,21.79,4.68.87-34.37,12.95-67.55,12.17-102.04-.34-35.84-.58-72.41,9.4-107.16,2.95,2.53,4.9,6.81,9.11,7.36,6.05-12.67,11.97-25.42,16.94-38.57,3.28-8.92,6.29-18.11,6.81-27.67.68-9.81-2.12-19.38-4.78-28.71-4.11-14.15-7.58-28.5-9.76-43.08-5.46-4.58-12.74-5.87-19.12-8.7-.85-1.38-2.48-1.3-3.87-1.42ZM324.53,186.19c.96,3.76,2.68,7.25,4.37,10.73,5.13-2.05,8.64-6.63,10.92-11.5-5.09.3-10.22.15-15.29.77ZM250.97,226.19c.52,8-.73,15.98-.31,23.98,1.35.38,2.7.78,4.04,1.17-.24-8.46-1.03-17.1-3.73-25.15ZM293.09,284.64c-2.1,15.06-4.8,30.12-5.28,45.35,2.73,22.47,4.8,45.02,7.01,67.56.18,4.2,1.7,8.43.81,12.64-1.16,1.09-2.52,1.97-3.58,3.17-.14,2.23-.09,4.48-.4,6.7-4.36,2.16-6.24,6.84-7.26,11.32,4.37.06,8.75.03,13.12.05.24-2.02.67-4,.84-6.02-.17-2.32-1.62-4.47-1.19-6.82,4.36-24.52,2.8-49.54,2.37-74.3-1.13-13.92-1.06-27.9-.74-41.85,1.7-12.44-1.39-24.78-2.57-37.11-1.53,6.35-1.98,12.89-3.13,19.31ZM299.73,427.34c-.02,1.36-.03,2.72-.04,4.09.79-.02,2.36-.07,3.15-.1-1.05-1.33-2.08-2.66-3.11-3.99ZM261.71,433.3c-.01.82-.04,2.48-.05,3.3,6.64,2.35,14.73,1.58,20.13-3.22-6.69-.14-13.39,0-20.08-.08Z"/>
      <path d="M171.44,30.23c5.21-4.05,12.12-6.28,18.61-4.29,9.29,2.97,15.11,12.19,16.96,21.37,2.92,13.31-1.83,27.52-11.17,37.24-2.04,1.39-.72,3.73.72,4.97,1.91,1.78,4.51,2.46,6.99,3.01-.77.51-1.54,1.01-2.3,1.5-3.99-1.44-8.18-3.88-8.61-8.57,7.93-7.87,13.54-18.62,13.31-29.99.29-10.3-4.15-21.63-13.6-26.66-6.87-3.59-15.15-1.19-20.82,3.55-3.88-.68-7.4,1.3-9.37,4.59-6.09,9.81-6.01,23.12.11,32.9,2.73,4.5,7.04,7.69,11.5,10.33-.97-8.22-6.99-15.24-6.13-23.79-.04-5.07,4.51-8.15,7.18-11.89,1.57-2.01.56-4.66.52-6.98,2.67,1.13,5.21,2.6,8.03,3.37,3.75,1.1,7.83,1.49,11.16,3.69,3.14,2.19,5.2,5.87,5.39,9.7.41,6.83-.32,13.71-1.83,20.38-1.14,4.73-4,9.44-8.65,11.4-4.84,1.94-10.36.48-14.45-2.5-2.5,7.83-10.61,12.31-18.2,13.96-.09.33-.29,1-.39,1.33,4.55-1.14,8.75-3.24,12.78-5.59,1.13,2.38,3,4.44,5.62,5.15,5.03,1.65,10.81,1.95,15.79-.05,2.63-.93,3.67-3.67,5.01-5.85,4.22,1.92,8.74,3.07,13.37,3.34-1.99-.88-4.18-1.13-6.28-1.52.8-.46,1.61-.9,2.43-1.32,1.56.19,3.13.36,4.71.51.38.9.77,1.8,1.16,2.69,5.67.33,12.89,1.58,15.19,7.61,2.4,8.4-.28,17.14.7,25.68,1.43,9.22.82,18.59,1.74,27.87-.19,6.69,3.74,12.52,4.32,19.1,2.14,11.3-.55,22.68-.28,34.03-.09,4.33-.08,8.67.15,13,.39,5.2,6.26,7.86,6.94,12.91-.58,3.98-3.25,7.38-6.19,9.99-3.87,1.06-7.35-2.7-8.9-5.84,2.46-3.49.08-7.38.06-11.13,1.54-21.13-13.45-39.8-10.93-61.03,1.42-7.13.98-14.46-.28-21.57-6.27,10.35-6.72,23.04-4.2,34.6,2.21,10.83,5.8,21.39,6.88,32.43.34,1.39-.84,2.43-1.43,3.57-1.08-18.59-10.44-36.09-8.3-54.96.4-6.92,3.59-13.2,7-19.09-1.03-9.08-2.87-18.35-.68-27.42.64.41,2.33-.2,1.85,1.22-.03,7.5,4.73,14.69,2.2,22.23-2.25,5.09-.85,10.62-.61,15.95.74,7.01-1.22,13.96-.74,20.98.16,6.54,2.29,12.79,4.21,18.98,2.63,8.21,5.21,16.47,6.72,24.98.82,4.47-.32,9.09.86,13.52.43,1.67.53,3.4.43,5.13-2.66,2.79,2.29,4.88,4.21,6.17,2.73-1.68,4.85-4.55,5.74-7.63.57-5.16-5.77-7.57-6.36-12.54-2.57-17.55,3.12-35.49-1.07-52.91-1.28-4.5-3.27-8.85-3.46-13.59-.24-11.03-.79-22.07-2.06-33.03.12-7.14,2.09-14.53-.43-21.5-2.42-5.02-8.68-5.3-13.47-6.1.09,4.29-.25,8.69-2.13,12.61-3.16,7.17-10,11.56-16.25,15.78-3.31,1.9-5.45,5.07-6.92,8.49-1.35-1.96-2.65-4.15-4.9-5.19-6.25-3.15-13.4-4.5-19.03-8.85-6.32-4.51-9.44-12.54-9.01-20.15.75-.92,2.32-.84,2.9-1.84-2.2-.57-4.64,1.08-6.95,1.14.49.69,1.48,2.08,1.97,2.77-1.14.06-2.27.14-3.41.24.01-1.46-.15-2.91-.48-4.34,10.09-2.31,23.37-4.75,26.93-16.09-3.39-2.53-7.13-4.67-9.92-7.91-8.44-9.32-9.96-23.71-4.88-35.02,2.13-5.08,6.75-9.88,12.72-9.23ZM177.73,40.57c.13,5.71-5.65,8.39-7.73,13.09-2.04,7.32,1.89,14.24,4.39,20.87,1.32,2.89-.23,7.57,3.53,8.76,4.25,2.57,10.05,2.8,13.85-.73,5.43-5.17,5.38-13.29,6.35-20.2.77-5.71.55-13.02-4.87-16.47-4.85-2.66-10.71-2.53-15.52-5.32ZM154.19,101.45c.24,7.31,3.33,14.95,9.88,18.75,6.57,4.57,15.4,4.95,21.19,10.72,2.63-4.47,7.36-6.86,11.42-9.79,4.87-3.43,9.45-7.88,11.2-13.73,1.13-3.13.87-6.52.92-9.79-4.21-.24-8.34-1.2-12.25-2.76-2.2,4.39-7.07,6.69-11.84,6.64-5.88.36-12.7-.72-16.43-5.78-4.28,2.83-9.25,4.22-14.09,5.74ZM213.9,124.69c-.42,4.84-.21,9.88,1.54,14.47.68-4.88.13-9.85-1.54-14.47Z"/>
      <path d="M313.96,70.8c2.88-1.45,4.38-4.35,6.32-6.76.48.82,1.46,2.45,1.94,3.27-.53.61-1.07,1.22-1.61,1.82l-.15-1.94c-1.29,1.4-2.56,2.83-3.59,4.44-.99-.22-1.96-.51-2.91-.83Z"/>
      <path d="M256.22,80.47c.24,1.81-.68,3.6-.09,5.39,3.47,13.55,2.54,27.64,3.29,41.48.45,6.36-.05,12.78,1.15,19.08.15,2.98,1.55,5.95.8,8.92-1.44-1.05-2.89-2.11-4.38-3.08.76-.47,1.53-.92,2.32-1.36-3.15-20.05-.47-40.57-4.02-60.59-.4-2.91-1.85-5.71-1.57-8.69l2.5-1.15Z"/>
      <path d="M137.8,106.59c1.53-2.94,4.08-6.28,7.68-6.34,1.83,1.02,1.4,2.64.5,4.13-.97-4.42-4.55-.39-5.72,1.48-5.23,9.33-2.94,20.39-3.64,30.57-1.25,9.99-3.42,19.88-3.89,29.96-.19,4.82-2,9.37-2.83,14.09-1.65,16.92.89,33.99-1.14,50.87-1.43,1.17-2.97,3.49-5.09,2.46,1-1.5,2.32-2.75,3.72-3.87.71-15.5.03-31.03.31-46.54.41-6.13,3.15-11.87,3.23-18.05.64-11.37,3.64-22.46,4.08-33.83-.18-8.33-.67-17.12,2.79-24.93Z"/>
      <path d="M147.04,106.09c1.02-1.03,1.78-2.27,2.63-3.45.64,3.96,1.13,7.97,2.26,11.83,1.7,5.53.92,11.39.73,17.06-2.54-3.49-.53-7.92-1.43-11.81-.72,3.09.05,6.32-.67,9.41-.42-.04-1.25-.13-1.67-.17.82-7.6,1.97-15.85-1.85-22.87Z"/>
      <path d="M148.72,129.61c.56.72,1.12,1.45,1.69,2.18-1.77,11.5-4.92,22.88-4.71,34.61.23,8.24-.43,16.48-1.64,24.63-2.35,15.33-8.07,29.9-10.39,45.24.84-.07,2.52-.2,3.36-.26-.78.56-2.34,1.68-3.12,2.25,1.71,2.65,2.77,5.94,1.52,9.02-1.28,3.09-.53,6.33.61,9.32-.92,3.85-2.98,7.88-7.13,8.95-.5-.3-1.51-.92-2.02-1.22-1.71-3.03-3.73-5.87-5.42-8.91,2.72-5.29,4.51-11.09,4.95-17.03-.67-.59-2-1.77-2.66-2.36,1.06-.48,2.13-.17,3.03.48-1.37-3.91,2.9-4.48,5.59-4.56,3.32-15.59,8.92-30.69,10.62-46.61,1.4-8.87.02-17.89,1.33-26.77.36-9.81,3.63-19.21,4.39-28.96ZM128.42,236.25c1.31-.08,2.61-.15,3.92-.23l.24-2.68c-1.59.66-4.03.7-4.16,2.91ZM128.45,238c-.77,6-2.31,11.82-4.75,17.36,1.11,2.94,3.25,5.44,4.95,8.07,3.54,0,4.26-4.3,5.66-6.77-1.42-2.9-2.27-6.21-.82-9.28,1.25-2.42.64-4.99-.63-7.25-.18-.65-.55-1.96-.74-2.62-1.23.14-2.46.25-3.67.49Z"/>
      <path d="M150.75,131.7c.75.1,1.51.18,2.26.32-2.15,4.78-.68,10.23.98,14.93,3.76,7.94,6.53,16.71,5.59,25.59-1.51,12.88-7.78,24.48-11.09,36.9-6.17,21.1-4.68,43.59-.14,64.85,9.42,49.51,11.5,101.44-2.39,150.33-1.08,2.8-1.02,6.53-3.29,8.6-47.28.15-94.6.2-141.88-.02-.2-.44-.6-1.32-.79-1.76,47.43-.12,94.88.15,142.31-.13,5.18-18.28,9.33-36.93,10.75-55.92,2.89-34.7-.42-69.67-7.06-103.79-2.05-10.57-3.71-21.31-3.33-32.12-.5-15.2,3.32-30.19,8.64-44.33,3.05-8.63,6.81-17.41,6.4-26.75.32-7.42-2.56-14.41-5.5-21.06-2.26-4.9-1.85-10.42-1.46-15.64Z"/>
    </g>
  </g>
</svg>